<?xml version="1.0" encoding="utf-8"?>
<!-- Generator: Adobe Illustrator 16.0.0, SVG Export Plug-In . SVG Version: 6.00 Build 0)  -->
<!DOCTYPE svg PUBLIC "-//W3C//DTD SVG 1.1//EN" "http://www.w3.org/Graphics/SVG/1.1/DTD/svg11.dtd">
<svg version="1.1" id="Layer_1" xmlns="http://www.w3.org/2000/svg" xmlns:xlink="http://www.w3.org/1999/xlink" x="0px" y="0px"
	 width="64px" height="64px" viewBox="-20 -20 64 64" enable-background="new -20 -20 64 64" xml:space="preserve">
<g>
	<g>
		<rect x="-20" y="-20" fill="none" width="64" height="64"/>
	</g>
	<g>
		<path d="M27.419,12.872h-6.106v8.727h5.817c1.745,0,2.912-0.289,3.49-0.869c0.875-0.584,1.164-2.037,1.164-3.198
			C31.784,14.62,30.331,12.872,27.419,12.872z"/>
		<path d="M-1.959,0.363h-5.529v9.599h5.529c1.743,0,2.909-0.291,3.781-1.166c0.868-0.869,1.16-2.034,1.16-3.491
			c0-1.746-0.292-2.619-1.166-3.492C1.237,0.656-0.219,0.363-1.959,0.363z"/>
		<path d="M31.198,4.728c0-1.456-0.289-2.616-1.156-3.201c-1.17-0.871-2.334-1.164-4.367-1.164H21.31v8.146h4.654
			C29.167,8.509,31.198,7.341,31.198,4.728z"/>
		<path d="M12-20C-5.746-20-20-5.746-20,12c0,17.745,14.254,32,32,32c17.745,0,32-14.544,32-32C44-5.453,29.456-20,12-20z
			 M11.419,27.125H3.855l-6.109-11.927h-5.237v11.927h-6.4V-4.873h11.928c3.781,0,6.69,0.873,8.728,2.619
			c2.034,1.455,3.199,4.07,3.199,6.979c0,2.328-0.291,4.069-1.166,5.529C7.928,12,6.471,12.867,4.728,13.739l6.981,13.094v0.287
			h-0.29V27.125z M27.13,27.125H14.909V-4.873h11.346c3.787,0,6.693,0.58,9.021,2.328c2.039,1.75,2.906,3.781,2.906,6.4
			c0,1.745-0.287,2.91-1.164,4.073c-0.867,1.166-2.037,2.037-3.492,2.619c1.455,0.293,2.911,1.16,3.786,2.616
			c0.87,1.162,1.161,2.91,1.161,4.363c0,3.197-0.875,5.525-2.911,6.979C33.526,25.964,30.62,26.833,27.13,27.125z"/>
	</g>
</g>
</svg>
