<?xml version="1.0" encoding="utf-8"?>
<!-- Generator: Adobe Illustrator 16.0.0, SVG Export Plug-In . SVG Version: 6.00 Build 0)  -->
<!DOCTYPE svg PUBLIC "-//W3C//DTD SVG 1.1//EN" "http://www.w3.org/Graphics/SVG/1.1/DTD/svg11.dtd">
<svg version="1.1" id="Layer_1" xmlns="http://www.w3.org/2000/svg" xmlns:xlink="http://www.w3.org/1999/xlink" x="0px" y="0px"
	 width="64px" height="64px" viewBox="0 0 64 64" enable-background="new 0 0 64 64" xml:space="preserve">
<rect x="0" y="0" fill="none" width="63.999" height="64.001"/>
<g>
	<g>
		<g>
			<path d="M38.625,31.688c1.119-0.681,1.313-1.427,1.307-2.385c-0.021-3.022-2.738-2.957-3.479-2.951l-4.375,0.031
				c0.812,0.858,0.956,1.603,0.961,2.271l0.028,4.019l3.428-0.024c0.732-0.005,2.205,0.138,2.215,1.671
				c0.012,1.532-0.994,1.691-2.191,1.7l-3.426,0.024c0.006,0.887,0.01,1.486,0.01,1.486s2.582-0.018,4.377-0.03
				c1.795-0.014,2.949-1.295,2.938-3.066C40.403,32.66,39.37,32.161,38.625,31.688z M36.252,31.126
				c-1.043,0.008-1.561,0.012-1.561,0.012l-0.021-3.142c0,0,0.92-0.007,1.559-0.011c0.641-0.004,1.924,0.131,1.934,1.557
				C38.172,30.972,37.297,31.119,36.252,31.126z"/>
		</g>
		<g>
			<path d="M24.435,37.592l-0.08-11.152c0,0,3.276-0.023,3.906-0.028c0.629-0.005,3.458,0.144,3.48,3.333
				c0.018,2.495-1.146,2.911-2.175,3.397c0.636,1.123,2.591,4.491,2.591,4.491l-2.021,0.015l-3.609-5.646l1.729-0.013l0.112-0.001
				c0,0,1.595,0.132,1.581-1.989c-0.017-2.123-1.901-2.038-1.901-2.038c-0.648,0.005-1.978,0.015-1.978,0.015l0.068,9.605
				L24.435,37.592z"/>
		</g>
	</g>
	<g>
		<path d="M63.346,32.596H45.792c-0.359,0-0.652-0.293-0.652-0.654c0-0.361,0.293-0.654,0.652-0.654h17.555
			c0.361,0,0.654,0.293,0.654,0.654C64,32.302,63.708,32.596,63.346,32.596z"/>
	</g>
	<g>
		<path d="M18.671,32.596H0.654C0.293,32.596,0,32.302,0,31.941c0-0.361,0.293-0.654,0.654-0.654h18.017
			c0.361,0,0.654,0.293,0.654,0.654C19.326,32.302,19.033,32.596,18.671,32.596z"/>
	</g>
</g>
</svg>
