<?xml version="1.0" encoding="utf-8"?>
<!-- Generator: Adobe Illustrator 16.0.0, SVG Export Plug-In . SVG Version: 6.00 Build 0)  -->
<!DOCTYPE svg PUBLIC "-//W3C//DTD SVG 1.1//EN" "http://www.w3.org/Graphics/SVG/1.1/DTD/svg11.dtd">
<svg version="1.1" id="Layer_1" xmlns="http://www.w3.org/2000/svg" xmlns:xlink="http://www.w3.org/1999/xlink" x="0px" y="0px"
	 width="64px" height="64px" viewBox="0 0 64 64" enable-background="new 0 0 64 64" xml:space="preserve">
<rect x="0" y="0" fill="none" width="63.999" height="64.001"/>
<g>
	<g>
		<g>
			<path d="M38.166,11.58c1.078-0.626,1.266-1.313,1.258-2.193c-0.02-2.778-2.637-2.717-3.352-2.712l-4.216,0.03
				c0.783,0.788,0.921,1.473,0.925,2.087l0.025,3.695l3.304-0.023c0.707-0.005,2.125,0.126,2.133,1.535
				c0.012,1.409-0.957,1.557-2.109,1.565l-3.304,0.023c0.006,0.814,0.01,1.366,0.01,1.366s2.486-0.018,4.216-0.03
				c1.73-0.012,2.844-1.19,2.832-2.819C39.876,12.473,38.88,12.014,38.166,11.58z M35.876,11.064
				c-1.004,0.007-1.504,0.011-1.504,0.011l-0.02-2.889c0,0,0.887-0.007,1.504-0.011c0.613-0.005,1.852,0.12,1.863,1.431
				C37.728,10.922,36.884,11.057,35.876,11.064z"/>
		</g>
		<g>
			<path d="M24.489,17.014L24.416,6.759c0,0,3.157-0.022,3.764-0.027c0.605-0.004,3.332,0.131,3.353,3.064
				c0.016,2.293-1.105,2.676-2.097,3.124c0.612,1.032,2.495,4.129,2.495,4.129l-1.946,0.014l-3.477-5.191l1.666-0.012l0.107-0.001
				c0,0,1.537,0.121,1.523-1.829c-0.015-1.952-1.831-1.873-1.831-1.873C27.349,8.16,26.068,8.17,26.068,8.17l0.063,8.832
				L24.489,17.014z"/>
		</g>
	</g>
	<g>
		<path d="M32,64C14.665,64,0.561,49.645,0.561,32C0.561,14.355,14.665,0,32,0s31.438,14.355,31.438,32
			C63.438,49.645,49.336,64,32,64z M32,1.495C15.489,1.495,2.055,15.18,2.055,32c0,16.82,13.434,30.504,29.945,30.504
			S61.946,48.821,61.946,32C61.946,15.18,48.512,1.495,32,1.495z"/>
	</g>
	<g>
		<path d="M24.005,50.661c-0.283,0-1.253-0.059-1.851-0.824c-0.439-0.563-0.544-1.32-0.311-2.25
			c0.464-1.859,1.187-6.297,1.397-7.613l-5.153-5.141c-0.027-0.027-0.053-0.055-0.075-0.086c-0.351-0.479-1.452-2.125-0.902-3.21
			c0.181-0.356,0.588-0.78,1.505-0.78h7.395l4.521-8.507c0.137-0.287,0.702-1.313,1.628-1.313c0.065,0,0.13,0.006,0.197,0.017
			c0.442,0.074,0.943,0.157,4.754,8.706c1.758,0.21,7.625,0.911,8.254,1.063c0.48,0.115,1.617,0.494,1.887,1.515
			c0.211,0.809-0.18,1.663-1.199,2.615l-2.148,2c-0.023,0.02-0.043,0.035-0.066,0.055c-1.531,1.121-2.93,2.551-3.031,3.078
			l0.086,0.391c0.789,3.617,1.5,7.113,1.375,8.156c-0.207,1.73-1.082,2.094-1.781,2.094c-0.551,0-1.191-0.242-1.957-0.738
			c-1.625-1.051-5.233-3.102-6.396-3.758c-1.404,0.805-6.374,3.652-6.994,4.012l-0.724,0.418c-0.104,0.063-0.221,0.098-0.341,0.102
			C24.062,50.661,24.017,50.661,24.005,50.661z M19.186,33.818l5.381,5.366c0.169,0.168,0.247,0.406,0.211,0.645
			c-0.038,0.238-0.923,5.871-1.484,8.117c-0.112,0.453-0.099,0.797,0.039,0.973c0.116,0.148,0.347,0.215,0.523,0.238l0.532-0.309
			c0.724-0.422,7.37-4.227,7.37-4.227c0.228-0.133,0.507-0.133,0.737-0.004c0.198,0.109,4.866,2.734,6.846,4.016
			c0.695,0.449,1.031,0.5,1.145,0.5c0.18,0,0.262-0.488,0.297-0.777c0.078-0.625-0.379-3.203-1.352-7.664l-0.105-0.496
			c-0.012-0.051-0.02-0.105-0.02-0.156c0-1.484,2.496-3.492,3.609-4.313l2.117-1.97c0.68-0.636,0.805-1.024,0.773-1.142
			c-0.035-0.132-0.34-0.333-0.789-0.442c-0.461-0.111-5.461-0.722-8.504-1.081c-0.262-0.031-0.488-0.198-0.598-0.438
			c-1.449-3.269-3.158-6.855-3.87-8.025c-0.07,0.097-0.139,0.206-0.182,0.295l-4.744,8.93c-0.13,0.243-0.384,0.396-0.66,0.396
			h-7.844c-0.078,0-0.133,0.006-0.169,0.012C18.457,32.557,18.787,33.257,19.186,33.818z"/>
	</g>
</g>
</svg>
