<?xml version="1.0" encoding="utf-8"?>
<!-- Generator: Adobe Illustrator 16.0.0, SVG Export Plug-In . SVG Version: 6.00 Build 0)  -->
<!DOCTYPE svg PUBLIC "-//W3C//DTD SVG 1.1//EN" "http://www.w3.org/Graphics/SVG/1.1/DTD/svg11.dtd">
<svg version="1.1" id="Layer_1" xmlns="http://www.w3.org/2000/svg" xmlns:xlink="http://www.w3.org/1999/xlink" x="0px" y="0px"
	 width="64px" height="64px" viewBox="0 0 64 64" enable-background="new 0 0 64 64" xml:space="preserve">
<rect x="0" y="0" fill="none" width="63.999" height="64.001"/>
<g>
	<g>
		<path d="M63.283,24.399H0.717C0.321,24.399,0,24.078,0,23.682c0-0.396,0.321-0.718,0.718-0.718h62.565
			c0.396,0,0.718,0.321,0.718,0.718C64,24.078,63.678,24.399,63.283,24.399z"/>
	</g>
	<g>
		<path d="M63.283,33.795H0.717C0.321,33.795,0,33.473,0,33.077c0-0.396,0.321-0.718,0.718-0.718h62.565
			c0.396,0,0.718,0.321,0.718,0.718C64,33.473,63.678,33.795,63.283,33.795z"/>
	</g>
	<g>
		<path d="M63.283,42.729H0.717C0.321,42.729,0,42.409,0,42.012s0.321-0.717,0.718-0.717h62.565c0.396,0,0.718,0.32,0.718,0.717
			S63.678,42.729,63.283,42.729z"/>
	</g>
	<g>
		<path d="M63.283,51.581H0.717C0.321,51.581,0,51.26,0,50.864s0.321-0.719,0.718-0.719h62.565c0.396,0,0.718,0.322,0.718,0.719
			S63.678,51.581,63.283,51.581z"/>
	</g>
	<g>
		<path d="M31.046,60.612H0.717C0.321,60.612,0,60.292,0,59.893c0-0.395,0.321-0.717,0.718-0.717h30.329
			c0.396,0,0.718,0.322,0.718,0.717C31.764,60.292,31.443,60.612,31.046,60.612z"/>
	</g>
	<g>
		<g>
			<path d="M16.89,9.699c1.302-0.793,1.533-1.672,1.533-2.801c0-3.564-3.146-3.509-4.003-3.509H9.352
				c0.934,1.019,1.094,1.897,1.094,2.686v4.739h3.97c0.849,0,2.551,0.181,2.551,1.988s-1.165,1.988-2.551,1.988h-3.97
				c0,1.044,0,1.752,0,1.752s2.989,0,5.068,0s3.427-1.501,3.427-3.589C18.941,10.858,17.749,10.261,16.89,9.699z M14.147,9.016
				c-1.207,0-1.806,0-1.806,0V5.311c0,0,1.065,0,1.806,0s2.226,0.171,2.226,1.853C16.373,8.85,15.358,9.016,14.147,9.016z"/>
		</g>
		<g>
			<path d="M0.411,16.541V3.39c0,0,3.795,0,4.522,0c0.729,0,4.003,0.198,4.003,3.959c0,2.941-1.352,3.422-2.547,3.988
				c0.728,1.329,2.963,5.317,2.963,5.317H7.013L2.88,9.965h2.001h0.13c0,0,1.846,0.169,1.846-2.333c0-2.503-2.184-2.418-2.184-2.418
				c-0.75,0-2.29,0-2.29,0v11.327H0.411z"/>
		</g>
	</g>
</g>
</svg>
