<?xml version="1.0" encoding="utf-8"?>
<!-- Generator: Adobe Illustrator 16.0.0, SVG Export Plug-In . SVG Version: 6.00 Build 0)  -->
<!DOCTYPE svg PUBLIC "-//W3C//DTD SVG 1.1//EN" "http://www.w3.org/Graphics/SVG/1.1/DTD/svg11.dtd">
<svg version="1.1" id="Layer_1" xmlns="http://www.w3.org/2000/svg" xmlns:xlink="http://www.w3.org/1999/xlink" x="0px" y="0px"
	 width="64px" height="64px" viewBox="0 0 64 64" enable-background="new 0 0 64 64" xml:space="preserve">
<rect x="0" y="0" fill="none" width="63.999" height="64.001"/>
<g>
	<g>
		<g>
			<path d="M33.899,26.279c2.673-1.497,3.153-3.155,3.153-5.293c0-6.737-6.469-6.63-8.233-6.63H18.393
				c1.925,1.925,2.246,3.583,2.246,5.08c0,1.497,0,19.783,0,19.783s6.148,0,10.426,0s7.058-2.833,7.058-6.791
				C38.123,28.471,35.663,27.349,33.899,26.279z M24.542,17.992c0,0,2.192,0,3.716,0c1.524,0,4.571,0.321,4.571,3.502
				s-2.085,3.502-4.571,3.502c-2.485,0-3.716,0-3.716,0V17.992z M28.809,35.909c-2.855,0-4.268,0-4.268,0v-7.521
				c0,0,2.518,0,4.268,0s5.25,0.344,5.25,3.76C34.059,35.564,31.665,35.909,28.809,35.909z"/>
		</g>
		<g>
			<path d="M0,39.218V14.355c0,0,7.806,0,9.303,0s8.234,0.375,8.234,7.485c0,5.561-2.78,6.47-5.24,7.54
				c1.497,2.513,6.096,10.052,6.096,10.052h-4.813L5.08,26.787h4.117h0.267c0,0,3.797,0.321,3.797-4.411s-4.491-4.571-4.491-4.571
				c-1.544,0-4.712,0-4.712,0v21.414H0z"/>
		</g>
	</g>
	<g>
		<path d="M62.984,49.965H0.749c-0.354,0-0.642-0.287-0.642-0.642s0.287-0.642,0.642-0.642h62.235c0.354,0,0.642,0.287,0.642,0.642
			S63.338,49.965,62.984,49.965z"/>
	</g>
	<g>
		<path d="M63.358,35.744H44.003c-0.354,0-0.642-0.288-0.642-0.642c0-0.355,0.288-0.643,0.642-0.643h19.354
			c0.355,0,0.642,0.287,0.642,0.643C64,35.456,63.713,35.744,63.358,35.744z"/>
	</g>
	<g>
		<path d="M63.358,25.477H44.003c-0.354,0-0.642-0.287-0.642-0.642s0.288-0.642,0.642-0.642h19.354c0.355,0,0.642,0.287,0.642,0.642
			S63.713,25.477,63.358,25.477z"/>
	</g>
	<g>
		<path d="M63.358,15.318H44.003c-0.354,0-0.642-0.287-0.642-0.642c0-0.354,0.288-0.642,0.642-0.642h19.354
			c0.355,0,0.642,0.288,0.642,0.642C64,15.031,63.713,15.318,63.358,15.318z"/>
	</g>
</g>
</svg>
