<?xml version="1.0" encoding="utf-8"?>
<!-- Generator: Adobe Illustrator 16.0.0, SVG Export Plug-In . SVG Version: 6.00 Build 0)  -->
<!DOCTYPE svg PUBLIC "-//W3C//DTD SVG 1.1//EN" "http://www.w3.org/Graphics/SVG/1.1/DTD/svg11.dtd">
<svg version="1.1" id="Layer_1" xmlns="http://www.w3.org/2000/svg" xmlns:xlink="http://www.w3.org/1999/xlink" x="0px" y="0px"
	 width="64px" height="64px" viewBox="0 0 64 64" enable-background="new 0 0 64 64" xml:space="preserve">
<rect x="0" y="0" fill="none" width="63.999" height="64.001"/>
<g>
	<g>
		<g>
			<path d="M39.204,23.928c1.451-0.885,1.703-1.854,1.695-3.101c-0.029-3.93-3.551-3.844-4.511-3.836l-5.676,0.04
				c1.053,1.115,1.24,2.083,1.246,2.952l0.037,5.225l4.445-0.031c0.951-0.007,2.86,0.179,2.874,2.172
				c0.014,1.992-1.29,2.2-2.842,2.211l-4.446,0.032c0.009,1.151,0.015,1.932,0.015,1.932s3.348-0.023,5.674-0.04
				c2.33-0.017,3.828-1.683,3.811-3.985C41.51,25.191,40.169,24.542,39.204,23.928z M36.125,23.197
				c-1.352,0.01-2.021,0.016-2.021,0.016l-0.03-4.085c0,0,1.194-0.009,2.024-0.015c0.828-0.006,2.494,0.171,2.507,2.025
				C38.617,22.998,37.483,23.188,36.125,23.197z"/>
		</g>
		<g>
			<path d="M20.8,31.604l-0.104-14.5c0,0,4.25-0.03,5.066-0.036c0.815-0.006,4.485,0.187,4.514,4.334
				c0.023,3.243-1.486,3.783-2.82,4.417c0.825,1.46,3.361,5.839,3.361,5.839l-2.621,0.019l-4.681-7.342l2.242-0.016l0.145-0.002
				c0,0,2.069,0.173,2.05-2.586c-0.021-2.761-2.466-2.649-2.466-2.649c-0.84,0.006-2.565,0.019-2.565,0.019l0.089,12.488
				L20.8,31.604z"/>
		</g>
	</g>
	<g>
		<path d="M45.964,39.692H3.803C1.706,39.692,0,37.987,0,35.889V12.985c0-2.097,1.706-3.803,3.803-3.803h55.904
			c2.098,0,3.804,1.706,3.804,3.803v22.904c0,1.206-0.581,2.353-1.555,3.067c-0.308,0.226-0.74,0.159-0.967-0.148
			c-0.226-0.308-0.159-0.74,0.148-0.967c0.62-0.455,0.989-1.185,0.989-1.952V12.985c0-1.334-1.085-2.42-2.42-2.42H3.803
			c-1.334,0-2.42,1.086-2.42,2.42v22.904c0,1.335,1.086,2.42,2.42,2.42h42.162c0.382,0,0.691,0.311,0.691,0.691
			C46.656,39.383,46.346,39.692,45.964,39.692z"/>
	</g>
	<g>
		<path d="M47.462,34.045c-0.184,0-0.367-0.073-0.504-0.218l-1.325-1.412c-0.262-0.278-0.247-0.716,0.03-0.978
			c0.278-0.262,0.717-0.247,0.978,0.031l1.325,1.412c0.262,0.278,0.248,0.716-0.03,0.977C47.802,33.984,47.632,34.045,47.462,34.045
			z"/>
	</g>
	<g>
		<path d="M50.603,32.369c-0.382,0-0.691-0.311-0.691-0.692v-2.73c0-0.382,0.31-0.691,0.691-0.691s0.691,0.31,0.691,0.691v2.73
			C51.294,32.058,50.985,32.369,50.603,32.369z"/>
	</g>
	<g>
		<path d="M53.808,33.29c-0.177,0-0.354-0.068-0.489-0.203c-0.27-0.27-0.27-0.708,0-0.978l1.549-1.549c0.27-0.27,0.708-0.27,0.978,0
			c0.271,0.27,0.271,0.708,0,0.978l-1.549,1.549C54.162,33.221,53.985,33.29,53.808,33.29z"/>
	</g>
	<g>
		<path d="M59.707,54.818c-0.045,0-0.09-0.005-0.134-0.014c-0.183-0.036-0.343-0.145-0.444-0.3l-3.466-5.3l-2.568,2.428
			c-0.19,0.181-0.467,0.237-0.714,0.146c-0.246-0.091-0.42-0.313-0.448-0.575l-1.671-15.499c-0.029-0.269,0.101-0.528,0.331-0.667
			c0.231-0.139,0.521-0.131,0.744,0.021l12.359,8.384c0.209,0.142,0.324,0.386,0.301,0.637s-0.183,0.47-0.414,0.569l-3.151,1.364
			l3.16,5.523c0.179,0.313,0.088,0.711-0.21,0.914l-3.284,2.247C59.982,54.776,59.845,54.818,59.707,54.818z M55.789,47.442
			c0.027,0,0.054,0.002,0.081,0.005c0.203,0.024,0.386,0.137,0.497,0.309l3.532,5.401l2.176-1.488l-3.228-5.641
			c-0.098-0.171-0.118-0.375-0.056-0.562s0.201-0.338,0.381-0.416l2.706-1.171l-10.083-6.839l1.362,12.629l2.156-2.038
			C55.443,47.509,55.613,47.442,55.789,47.442z"/>
	</g>
</g>
</svg>
