<?xml version="1.0" encoding="utf-8"?>
<!-- Generator: Adobe Illustrator 16.0.0, SVG Export Plug-In . SVG Version: 6.00 Build 0)  -->
<!DOCTYPE svg PUBLIC "-//W3C//DTD SVG 1.1//EN" "http://www.w3.org/Graphics/SVG/1.1/DTD/svg11.dtd">
<svg version="1.1" id="Layer_1" xmlns="http://www.w3.org/2000/svg" xmlns:xlink="http://www.w3.org/1999/xlink" x="0px" y="0px"
	 width="64px" height="64px" viewBox="0 0 64 64" enable-background="new 0 0 64 64" xml:space="preserve">
<rect x="0" y="0" fill="none" width="63.999" height="64.001"/>
<g>
	<g>
		<path d="M59.194,62.607H4.806C2.156,62.607,0,60.321,0,57.51V6.489c0-2.81,2.156-5.096,4.806-5.096h54.388
			c2.65,0,4.807,2.286,4.807,5.096V57.51C64,60.321,61.844,62.607,59.194,62.607z M4.806,2.744c-1.905,0-3.455,1.68-3.455,3.745
			V57.51c0,2.065,1.55,3.746,3.455,3.746h54.388c1.904,0,3.455-1.681,3.455-3.746V6.489c0-2.065-1.551-3.745-3.455-3.745H4.806z"/>
	</g>
	<g>
		<g>
			<path d="M18.522,11.7c0.975-0.566,1.144-1.187,1.139-1.983c-0.018-2.513-2.384-2.457-3.029-2.452l-3.813,0.027
				c0.708,0.713,0.833,1.332,0.837,1.887l0.023,3.341l2.986-0.021c0.638-0.004,1.92,0.114,1.93,1.388
				c0.008,1.274-0.867,1.407-1.91,1.415l-2.986,0.021c0.005,0.737,0.009,1.235,0.009,1.235s2.249-0.016,3.813-0.027
				c1.564-0.011,2.571-1.077,2.56-2.549C20.07,12.507,19.17,12.092,18.522,11.7z M16.454,11.233c-0.908,0.006-1.358,0.01-1.358,0.01
				l-0.019-2.612c0,0,0.802-0.006,1.359-0.01c0.557-0.004,1.675,0.108,1.684,1.294C18.127,11.104,17.366,11.227,16.454,11.233z"/>
		</g>
		<g>
			<path d="M6.158,16.612L6.092,7.34c0,0,2.854-0.02,3.403-0.024c0.547-0.004,3.012,0.118,3.031,2.77
				c0.015,2.074-1,2.419-1.896,2.825c0.554,0.934,2.256,3.733,2.256,3.733l-1.76,0.013l-3.143-4.693l1.506-0.011l0.097-0.001
				c0,0,1.39,0.109,1.377-1.654C10.95,8.532,9.308,8.604,9.308,8.604C8.744,8.608,7.585,8.616,7.585,8.616l0.057,7.985L6.158,16.612
				z"/>
		</g>
	</g>
	<g>
		<path d="M25.594,43.322c-0.706,0-1.53-0.457-1.53-1.744V23.171c0-0.812,0.592-1.356,1.473-1.356c0.643,0,1.41,0.284,2.16,0.8
			c1.333,0.916,13.716,9.242,13.841,9.326c0.188,0.126,0.301,0.338,0.299,0.564c-0.002,0.226-0.115,0.437-0.305,0.562L26.123,43.198
			c-0.071,0.046-0.15,0.079-0.233,0.097C25.85,43.302,25.742,43.322,25.594,43.322z M25.417,23.177l-0.002,18.401
			c0,0.301,0.061,0.371,0.124,0.388l14.404-9.471c-2.832-1.904-11.878-7.988-13.011-8.767c-0.512-0.352-1.033-0.562-1.395-0.562
			C25.483,23.166,25.443,23.171,25.417,23.177z"/>
	</g>
	<g>
		<path d="M56.852,54.538H16.493c-0.373,0-0.675-0.302-0.675-0.676c0-0.372,0.302-0.675,0.675-0.675h40.359
			c0.373,0,0.676,0.303,0.676,0.675C57.528,54.236,57.225,54.538,56.852,54.538z"/>
	</g>
	<g>
		<path d="M10.695,54.538H6.586c-0.373,0-0.675-0.302-0.675-0.676c0-0.372,0.302-0.675,0.675-0.675h4.109
			c0.373,0,0.676,0.303,0.676,0.675C11.371,54.236,11.068,54.538,10.695,54.538z"/>
	</g>
	<g>
		<path d="M13.594,57.099c-1.878,0-3.406-1.465-3.406-3.265s1.528-3.265,3.406-3.265c1.877,0,3.405,1.465,3.405,3.265
			S15.472,57.099,13.594,57.099z M13.594,51.92c-1.133,0-2.055,0.858-2.055,1.914s0.922,1.914,2.055,1.914
			c1.132,0,2.054-0.858,2.054-1.914S14.727,51.92,13.594,51.92z"/>
	</g>
</g>
</svg>
