<?xml version="1.0" encoding="utf-8"?>
<!-- Generator: Adobe Illustrator 16.0.0, SVG Export Plug-In . SVG Version: 6.00 Build 0)  -->
<!DOCTYPE svg PUBLIC "-//W3C//DTD SVG 1.1//EN" "http://www.w3.org/Graphics/SVG/1.1/DTD/svg11.dtd">
<svg version="1.1" id="Layer_1" xmlns="http://www.w3.org/2000/svg" xmlns:xlink="http://www.w3.org/1999/xlink" x="0px" y="0px"
	 width="64px" height="64px" viewBox="0 0 64 64" enable-background="new 0 0 64 64" xml:space="preserve">
<rect x="0" y="0" fill="none" width="63.999" height="64.001"/>
<g>
	<g>
		<path d="M59.182,60.258H4.817C2.161,60.258,0,58.123,0,55.498V8.501c0-2.624,2.161-4.76,4.817-4.76h54.365
			c2.656,0,4.818,2.136,4.818,4.76v46.996C64,58.123,61.838,60.258,59.182,60.258z M4.817,5.118c-1.897,0-3.441,1.519-3.441,3.384
			v46.996c0,1.866,1.543,3.384,3.441,3.384h54.365c1.898,0,3.441-1.518,3.441-3.384V8.501c0-1.865-1.543-3.384-3.441-3.384H4.817z"
			/>
	</g>
	<g>
		<g>
			<path d="M21.791,16.85c1.167-0.675,1.375-1.422,1.375-2.383c0-3.032-2.821-2.985-3.59-2.985h-4.546
				c0.837,0.867,0.981,1.614,0.981,2.285v4.031h3.561c0.761,0,2.288,0.154,2.288,1.691c0,1.538-1.045,1.691-2.288,1.691H16.01
				c0,0.889,0,1.49,0,1.49s2.681,0,4.546,0c1.865,0,3.074-1.276,3.074-3.054C23.63,17.837,22.561,17.329,21.791,16.85z M19.33,16.27
				c-1.083,0-1.62,0-1.62,0v-3.152c0,0,0.956,0,1.62,0c0.664,0,1.996,0.146,1.996,1.576C21.326,16.128,20.417,16.27,19.33,16.27z"/>
		</g>
		<g>
			<path d="M7.009,22.671V11.483c0,0,3.404,0,4.057,0s3.59,0.168,3.59,3.369c0,2.502-1.212,2.911-2.284,3.393
				c0.652,1.131,2.658,4.523,2.658,4.523h-2.098l-3.708-5.69h1.795h0.116c0,0,1.656,0.144,1.656-1.985
				c0-2.13-1.958-2.058-1.958-2.058c-0.673,0-2.055,0-2.055,0v9.637H7.009z"/>
		</g>
	</g>
	<g>
		<path d="M41.606,60.258c-0.178,0-0.355-0.068-0.49-0.205C40.926,59.861,22.07,40.75,19.262,37.856
			c-1.074-1.107-1.838-1.735-2.271-1.868c-0.155-0.048-0.196-0.047-0.586,0.262c-0.09,0.072-0.185,0.146-0.287,0.221
			c-0.687,0.508-9.309,9.287-14.937,15.063c-0.266,0.272-0.701,0.278-0.973,0.013c-0.272-0.265-0.278-0.7-0.013-0.973
			C1.641,49.09,14.343,36.06,15.309,35.357c0.085-0.062,0.165-0.125,0.241-0.186c1.261-1.001,2.161-0.891,4.7,1.726
			c2.804,2.889,21.655,21.997,21.846,22.189c0.266,0.271,0.264,0.706-0.008,0.974C41.956,60.192,41.78,60.258,41.606,60.258z"/>
	</g>
	<g>
		<path d="M63.311,54.924c-0.174,0-0.348-0.065-0.482-0.198c-0.605-0.598-14.871-14.674-17.438-17.582
			c-2.24-2.539-2.725-2.137-3.691-1.336c-0.93,0.771-8.137,8.09-11.818,11.853c-0.266,0.271-0.702,0.276-0.973,0.011
			s-0.276-0.701-0.011-0.974c0.437-0.446,10.706-10.94,11.925-11.95c1.68-1.392,2.945-1.523,5.6,1.485
			c2.535,2.874,17.225,17.368,17.373,17.514c0.27,0.267,0.273,0.703,0.006,0.973C63.667,54.856,63.489,54.924,63.311,54.924z"/>
	</g>
	<g>
		<path d="M49.778,25.763c-3.227,0-5.85-2.624-5.85-5.85s2.623-5.85,5.85-5.85c3.225,0,5.85,2.624,5.85,5.85
			S53.002,25.763,49.778,25.763z M49.778,15.441c-2.467,0-4.473,2.006-4.473,4.473s2.006,4.474,4.473,4.474s4.473-2.007,4.473-4.474
			S52.245,15.441,49.778,15.441z"/>
	</g>
</g>
</svg>
