<?xml version="1.0" encoding="utf-8"?>
<!-- Generator: Adobe Illustrator 16.0.0, SVG Export Plug-In . SVG Version: 6.00 Build 0)  -->
<!DOCTYPE svg PUBLIC "-//W3C//DTD SVG 1.1//EN" "http://www.w3.org/Graphics/SVG/1.1/DTD/svg11.dtd">
<svg version="1.1" id="Layer_1" xmlns="http://www.w3.org/2000/svg" xmlns:xlink="http://www.w3.org/1999/xlink" x="0px" y="0px"
	 width="64px" height="64px" viewBox="0 0 64 64" enable-background="new 0 0 64 64" xml:space="preserve">
<rect x="0" y="0" fill="none" width="63.999" height="64.001"/>
<g>
	<g>
		<g>
			<path d="M38.125,14.898c1.079-0.627,1.268-1.315,1.262-2.198c-0.021-2.784-2.642-2.722-3.356-2.717l-4.226,0.03
				c0.784,0.79,0.923,1.476,0.928,2.091l0.025,3.703l3.31-0.023c0.707-0.006,2.128,0.126,2.138,1.538s-0.96,1.56-2.116,1.567
				l-3.309,0.023c0.006,0.816,0.01,1.369,0.01,1.369s2.493-0.018,4.225-0.03c1.734-0.012,2.85-1.193,2.837-2.824
				C39.841,15.792,38.843,15.333,38.125,14.898z M35.833,14.38c-1.006,0.008-1.506,0.011-1.506,0.011l-0.021-2.894
				c0,0,0.889-0.007,1.506-0.011c0.617-0.005,1.856,0.12,1.866,1.434C37.688,14.238,36.844,14.374,35.833,14.38z"/>
		</g>
		<g>
			<path d="M24.423,20.341L24.35,10.067c0,0,3.164-0.022,3.771-0.027c0.606-0.004,3.338,0.132,3.359,3.07
				c0.016,2.298-1.108,2.682-2.101,3.13c0.614,1.035,2.5,4.137,2.5,4.137l-1.951,0.015l-3.483-5.201l1.669-0.013h0.108
				c0,0,1.54,0.121,1.526-1.834c-0.015-1.956-1.834-1.877-1.834-1.877c-0.625,0.005-1.909,0.014-1.909,0.014l0.063,8.85
				L24.423,20.341z"/>
		</g>
	</g>
	<g>
		<path d="M60.98,64H2.733c-0.761,0-1.188-0.323-1.411-0.594c-0.508-0.614-0.371-1.422-0.353-1.512
			c0.006-0.033,0.015-0.065,0.025-0.097l7.766-23.205c0.102-0.305,0.388-0.511,0.709-0.511h10.854c0.413,0,0.749,0.336,0.749,0.749
			s-0.335,0.748-0.749,0.748H10.009L2.436,62.208c-0.006,0.085,0.008,0.207,0.041,0.245c0.011,0.014,0.083,0.05,0.257,0.05H60.98
			c0.158,0,0.436-0.018,0.512-0.135c0.062-0.096,0.321-0.688-0.681-2.928c-1.449-3.24-6.012-16.968-6.969-19.861H42.781
			c-0.413,0-0.749-0.335-0.749-0.748s0.336-0.749,0.749-0.749h11.603c0.323,0,0.609,0.208,0.711,0.515
			c0.055,0.167,5.526,16.752,7.083,20.232c0.945,2.112,1.126,3.496,0.57,4.354C62.396,63.725,61.801,64,60.98,64z"/>
	</g>
	<g>
		<path d="M36.605,64c-0.153,0-0.307-0.046-0.439-0.143L19.753,51.925L2.505,61.373c-0.363,0.199-0.817,0.066-1.016-0.297
			c-0.199-0.362-0.066-0.817,0.297-1.016l17.664-9.676c0.254-0.139,0.566-0.119,0.8,0.051l16.796,12.211
			c0.334,0.243,0.408,0.711,0.165,1.046C37.064,63.893,36.836,64,36.605,64z"/>
	</g>
	<g>
		<path d="M31.18,60.056c-0.279,0-0.547-0.156-0.675-0.425c-0.179-0.373-0.021-0.82,0.351-0.999l25.901-12.426
			c0.374-0.179,0.82-0.021,0.999,0.351c0.178,0.373,0.021,0.82-0.352,0.999L31.503,59.982C31.399,60.033,31.289,60.056,31.18,60.056
			z"/>
	</g>
	<g>
		<path d="M19.903,51.79c-0.413,0-0.749-0.335-0.749-0.749v-7.345c0-0.413,0.335-0.749,0.749-0.749c0.414,0,0.749,0.336,0.749,0.749
			v7.345C20.651,51.455,20.316,51.79,19.903,51.79z"/>
	</g>
	<g>
		<path d="M31.879,47.064c-0.257,0-0.496-0.132-0.634-0.35c-0.624-0.991-15.272-24.349-15.272-30.667C15.973,8.319,20.989,0,32,0
			c12.116,0,15.88,11.796,15.88,16.094c0,3.993-2.208,7.798-2.302,7.958L32.527,46.69c-0.131,0.228-0.372,0.369-0.634,0.374
			C31.889,47.064,31.884,47.064,31.879,47.064z M32,1.498c-11.47,0-14.53,9.146-14.53,14.55c0,4.521,9.052,20.24,14.383,28.815
			l12.432-21.563c0.023-0.041,2.099-3.626,2.099-7.205C46.383,12.353,42.842,1.498,32,1.498z"/>
	</g>
</g>
</svg>
