<?xml version="1.0" encoding="utf-8"?>
<!-- Generator: Adobe Illustrator 16.0.0, SVG Export Plug-In . SVG Version: 6.00 Build 0)  -->
<!DOCTYPE svg PUBLIC "-//W3C//DTD SVG 1.1//EN" "http://www.w3.org/Graphics/SVG/1.1/DTD/svg11.dtd">
<svg version="1.1" id="Layer_1" xmlns="http://www.w3.org/2000/svg" xmlns:xlink="http://www.w3.org/1999/xlink" x="0px" y="0px"
	 width="64px" height="64px" viewBox="0 0 64 64" enable-background="new 0 0 64 64" xml:space="preserve">
<rect x="0" y="0" fill="none" width="63.999" height="64.001"/>
<g>
	<g>
		<g>
			<path d="M39.233,14.151c1.279-0.712,1.504-1.492,1.496-2.493C40.706,8.5,37.6,8.571,36.754,8.578l-5.006,0.035
				c0.928,0.896,1.092,1.674,1.097,2.372l0.029,4.199l3.92-0.028c0.838-0.006,2.521,0.143,2.533,1.744
				c0.01,1.601-1.139,1.769-2.508,1.778l-3.92,0.027c0.008,0.926,0.012,1.553,0.012,1.553s2.954-0.021,5.004-0.035
				c2.055-0.015,3.375-1.354,3.363-3.205C41.266,15.164,40.084,14.643,39.233,14.151z M36.518,13.565
				c-1.191,0.009-1.783,0.013-1.783,0.013l-0.023-3.282c0,0,1.053-0.008,1.785-0.013c0.73-0.006,2.199,0.136,2.209,1.625
				C38.715,13.403,37.715,13.556,36.518,13.565z"/>
		</g>
		<g>
			<path d="M23,20.33L22.917,8.676c0,0,3.748-0.026,4.467-0.031c0.719-0.006,3.955,0.147,3.978,3.479
				c0.019,2.606-1.313,3.042-2.49,3.552c0.727,1.173,2.96,4.69,2.96,4.69l-2.311,0.017l-4.124-5.897l1.977-0.014l0.128-0.002
				c0,0,1.824,0.138,1.809-2.079c-0.017-2.219-2.172-2.128-2.172-2.128c-0.741,0.005-2.262,0.016-2.262,0.016l0.071,10.037L23,20.33
				z"/>
		</g>
	</g>
	<g>
		<path d="M55.479,1.855H8.521c-0.512,0-0.928-0.415-0.928-0.928C7.594,0.416,8.009,0,8.521,0h46.958
			c0.512,0,0.928,0.415,0.928,0.927C56.407,1.44,55.991,1.855,55.479,1.855z"/>
	</g>
	<g>
		<path d="M55.479,64H8.521c-0.512,0-0.928-0.415-0.928-0.927s0.416-0.928,0.928-0.928h46.958c0.512,0,0.928,0.416,0.928,0.928
			S55.991,64,55.479,64z"/>
	</g>
	<g>
		<g>
			<path d="M31.833,55.189c-0.01,0-0.021,0-0.031,0c-0.265-0.01-0.513-0.131-0.682-0.335l-4.458-5.362
				c-0.328-0.395-0.273-0.979,0.121-1.306c0.394-0.329,0.979-0.274,1.306,0.12l3.791,4.56l4.375-4.606
				c0.354-0.37,0.941-0.387,1.313-0.033s0.387,0.94,0.033,1.312L32.504,54.9C32.33,55.084,32.086,55.189,31.833,55.189z"/>
		</g>
		<g>
			<path d="M32,53.797c-0.512,0-0.928-0.415-0.928-0.928v-8.58c0-0.512,0.416-0.927,0.928-0.927c0.513,0,0.928,0.415,0.928,0.927
				v8.58C32.928,53.382,32.513,53.797,32,53.797z"/>
		</g>
	</g>
	<g>
		<g>
			<path d="M27.375,34.463c-0.229,0-0.459-0.085-0.639-0.256c-0.371-0.352-0.386-0.938-0.033-1.311l5.095-5.362
				c0.182-0.192,0.433-0.294,0.703-0.288c0.265,0.009,0.513,0.13,0.683,0.334l4.457,5.362c0.326,0.394,0.273,0.979-0.121,1.306
				c-0.393,0.327-0.979,0.273-1.307-0.12l-3.79-4.56l-4.376,4.605C27.865,34.367,27.62,34.463,27.375,34.463z"/>
		</g>
		<g>
			<path d="M32.303,39.073c-0.512,0-0.928-0.415-0.928-0.928v-8.58c0-0.512,0.416-0.927,0.928-0.927
				c0.512,0,0.928,0.415,0.928,0.927v8.58C33.231,38.658,32.814,39.073,32.303,39.073z"/>
		</g>
	</g>
</g>
</svg>
