<?xml version="1.0" encoding="utf-8"?>
<!-- Generator: Adobe Illustrator 16.0.0, SVG Export Plug-In . SVG Version: 6.00 Build 0)  -->
<!DOCTYPE svg PUBLIC "-//W3C//DTD SVG 1.1//EN" "http://www.w3.org/Graphics/SVG/1.1/DTD/svg11.dtd">
<svg version="1.1" id="Layer_1" xmlns="http://www.w3.org/2000/svg" xmlns:xlink="http://www.w3.org/1999/xlink" x="0px" y="0px"
	 width="64px" height="64px" viewBox="0 0 64 64" enable-background="new 0 0 64 64" xml:space="preserve">
<rect x="0" y="0" fill="none" width="63.999" height="64.001"/>
<g>
	<g>
		<path d="M56.459,43.269H7.541c-0.38,0-0.688-0.309-0.688-0.688s0.308-0.688,0.688-0.688h48.918c0.379,0,0.688,0.309,0.688,0.688
			S56.838,43.269,56.459,43.269z"/>
	</g>
	<g>
		<path d="M56.459,51.699H7.541c-0.38,0-0.688-0.308-0.688-0.688c0-0.379,0.308-0.688,0.688-0.688h48.918
			c0.379,0,0.688,0.309,0.688,0.688C57.147,51.391,56.838,51.699,56.459,51.699z"/>
	</g>
	<g>
		<path d="M59.182,60.645H4.817C2.161,60.645,0,58.484,0,55.828V8.172c0-2.656,2.161-4.817,4.817-4.817h54.365
			C61.838,3.355,64,5.516,64,8.172v47.656C64,58.484,61.838,60.645,59.182,60.645z M4.817,4.731c-1.897,0-3.441,1.544-3.441,3.441
			v47.656c0,1.897,1.543,3.441,3.441,3.441h54.365c1.898,0,3.441-1.544,3.441-3.441V8.172c0-1.897-1.543-3.441-3.441-3.441H4.817z"
			/>
	</g>
	<g>
		<path d="M56.459,17.807H36.731c-0.379,0-0.688-0.308-0.688-0.688c0-0.38,0.309-0.688,0.688-0.688h19.729
			c0.379,0,0.688,0.308,0.688,0.688C57.147,17.499,56.838,17.807,56.459,17.807z"/>
	</g>
	<g>
		<path d="M56.459,26.409H36.731c-0.379,0-0.688-0.308-0.688-0.688c0-0.38,0.309-0.688,0.688-0.688h19.729
			c0.379,0,0.688,0.308,0.688,0.688C57.147,26.101,56.838,26.409,56.459,26.409z"/>
	</g>
	<g>
		<g>
			<path d="M24.399,22.947c0.949-0.544,1.118-1.146,1.118-1.92c0-2.443-2.295-2.405-2.921-2.405h-3.699
				c0.682,0.698,0.799,1.3,0.799,1.841v3.248h2.897c0.619,0,1.861,0.124,1.861,1.363s-0.85,1.362-1.861,1.362h-2.897
				c0,0.716,0,1.201,0,1.201s2.181,0,3.699,0c1.517,0,2.501-1.028,2.501-2.46C25.896,23.742,25.025,23.333,24.399,22.947z
				 M22.396,22.479c-0.881,0-1.318,0-1.318,0V19.94c0,0,0.778,0,1.318,0c0.541,0,1.624,0.117,1.624,1.27
				C24.021,22.366,23.281,22.479,22.396,22.479z"/>
		</g>
		<g>
			<path d="M12.371,27.637v-9.014c0,0,2.77,0,3.301,0s2.921,0.136,2.921,2.714c0,2.016-0.986,2.345-1.859,2.733
				c0.531,0.912,2.163,3.645,2.163,3.645H17.19l-3.017-4.585h1.461h0.095c0,0,1.347,0.116,1.347-1.599
				c0-1.716-1.594-1.658-1.594-1.658c-0.548,0-1.672,0-1.672,0v7.764H12.371z"/>
		</g>
	</g>
	<g>
		<path d="M26.581,35.01H10.064c-2.087,0-3.785-1.697-3.785-3.785V14.452c0-2.087,1.698-3.785,3.785-3.785h16.516
			c2.087,0,3.785,1.698,3.785,3.785v16.774C30.366,33.313,28.667,35.01,26.581,35.01z M10.064,12.043
			c-1.328,0-2.409,1.081-2.409,2.409v16.774c0,1.328,1.081,2.409,2.409,2.409h16.516c1.328,0,2.409-1.081,2.409-2.409V14.452
			c0-1.328-1.081-2.409-2.409-2.409H10.064z"/>
	</g>
</g>
</svg>
